<?xml version="1.0" encoding="UTF-8" standalone="no"?>
<!DOCTYPE svg PUBLIC "-//W3C//DTD SVG 1.1//EN" "http://www.w3.org/Graphics/SVG/1.1/DTD/svg11.dtd">
<svg width="100%" height="100%" viewBox="0 0 500 500" version="1.1" xmlns="http://www.w3.org/2000/svg" xmlns:xlink="http://www.w3.org/1999/xlink" xml:space="preserve" xmlns:serif="http://www.serif.com/" style="fill-rule:evenodd;clip-rule:evenodd;stroke-linejoin:round;stroke-miterlimit:2;">
    <g transform="matrix(-1.46628,0,0,1.46628,619.513,-114.877)">
        <path d="M242.683,193.82C242.201,193.152 241.948,192.297 242,191.637C243.058,178.107 242.455,182.47 245,170C247.545,157.53 249.012,148.174 254,145.832C258.988,143.491 259.099,159.018 257,168C254.901,176.982 254.307,176.922 250,188C248.494,191.873 247.04,193.777 245.794,194.513C249.504,195.919 252.264,199.265 252.812,203.357C253.501,208.498 250.512,213.425 245.632,215.187C242.302,216.384 238.735,217.375 235,218C233.769,218.206 232.145,218.058 230.684,217.811C227.969,217.377 225.189,217.604 222.58,218.473C219.397,219.534 215.318,220.894 213.28,221.574C211.845,222.052 210.684,223.123 210.092,224.515C209.749,225.321 209.685,226.096 209.854,226.843C210.074,227.822 210.621,228.697 211.404,229.323C212.17,229.936 213.853,231.282 214.95,232.171C215.609,232.698 216.075,233.428 216.276,234.248C216.658,235.911 217.372,238.786 218,240C218.427,240.825 220.653,242.636 222.912,244.308C224.309,245.366 226.1,245.761 227.812,245.386C229.525,245.012 230.988,243.907 231.817,242.362C232.243,241.601 232.649,240.804 233,240C234.788,235.908 232.019,223.514 234,222C234.738,221.436 236.869,219.765 239.253,217.891C241.11,216.447 243.586,216.078 245.783,216.918C247.98,217.757 249.579,219.683 250,221.997L250,222L257.492,234.175C257.823,234.713 258.308,235.137 258.885,235.393L263.428,237.413C264.341,237.818 265.039,238.591 265.351,239.541C265.662,240.49 265.556,241.526 265.061,242.394C264.589,243.22 264.112,244.054 263.745,244.717C263.369,245.376 263.243,246.148 263.391,246.892C263.573,247.978 263.227,250.16 260,254C254.895,260.075 247.553,265.275 241,265C234.447,264.725 228.388,264.266 218,269C207.612,273.734 196.512,254.583 198,243C199.488,231.417 198.731,230.979 195,229C191.269,227.021 192,217 192,217C191.973,216.299 192.847,214.603 193.87,212.869C195.634,209.853 198.866,208 202.36,208L210,208C210,208 220.449,193.477 234,193C236.295,192.919 239.336,193.266 242.683,193.82ZM210.487,200.862C210.731,198.077 210.68,193.726 209,189C206.141,180.957 202.615,167.017 204,161C205.385,154.983 201.824,147.357 206,146C210.176,144.643 214.041,151.547 214,166C213.959,180.453 218.024,178.469 217,184C216.03,189.241 213.399,183.347 210.487,200.862ZM210.487,200.862C210.316,202.817 210,204 210,204C210.163,202.878 210.326,201.834 210.487,200.862ZM191.942,210C191.942,210 177.703,188.573 172,183C166.297,177.427 178.538,167.999 182,177C185.462,186.001 184.552,195.92 191.942,210ZM228.734,191.637C219.805,187.437 224.55,177.931 222,154C219.45,130.069 229.846,136.826 233,142C236.154,147.174 234.385,157.252 232,166C229.615,174.748 234.385,176.418 233,182C231.615,187.582 228.734,191.637 228.734,191.637ZM276,220C272.657,219.882 272.403,215.276 280,206C287.597,196.724 290.963,208.498 291,213C291.037,217.502 279.827,223.346 273,224C266.173,224.654 276,220 276,220Z" style="fill:rgb(149,118,90);"/>
    </g>
    <g transform="matrix(1.46628,0,0,1.46628,-117.302,-114.877)">
        <path d="M242.683,193.82C242.201,193.152 241.948,192.297 242,191.637C243.058,178.107 242.455,182.47 245,170C247.545,157.53 249.012,148.174 254,145.832C258.988,143.491 259.099,159.018 257,168C254.901,176.982 254.307,176.922 250,188C248.494,191.873 247.04,193.777 245.794,194.513C249.504,195.919 252.264,199.265 252.812,203.357C253.501,208.498 250.512,213.425 245.632,215.187C242.302,216.384 238.735,217.375 235,218C233.769,218.206 232.145,218.058 230.684,217.811C227.969,217.377 225.189,217.604 222.58,218.473C219.397,219.534 215.318,220.894 213.28,221.574C211.845,222.052 210.684,223.123 210.092,224.515C209.749,225.321 209.685,226.096 209.854,226.843C210.074,227.822 210.621,228.697 211.404,229.323C212.17,229.936 213.853,231.282 214.95,232.171C215.609,232.698 216.075,233.428 216.276,234.248C216.658,235.911 217.372,238.786 218,240C218.427,240.825 220.653,242.636 222.912,244.308C224.309,245.366 226.1,245.761 227.812,245.386C229.525,245.012 230.988,243.907 231.817,242.362C232.243,241.601 232.649,240.804 233,240C234.788,235.908 232.019,223.514 234,222C234.738,221.436 236.869,219.765 239.253,217.891C241.11,216.447 243.586,216.078 245.783,216.918C247.98,217.757 249.579,219.683 250,221.997L250,222L257.492,234.175C257.823,234.713 258.308,235.137 258.885,235.393L263.428,237.413C264.341,237.818 265.039,238.591 265.351,239.541C265.662,240.49 265.556,241.526 265.061,242.394C264.589,243.22 264.112,244.054 263.745,244.717C263.369,245.376 263.243,246.148 263.391,246.892C263.573,247.978 263.227,250.16 260,254C254.895,260.075 247.553,265.275 241,265C234.447,264.725 228.388,264.266 218,269C207.612,273.734 196.512,254.583 198,243C199.488,231.417 198.731,230.979 195,229C191.269,227.021 192,217 192,217C191.973,216.299 192.847,214.603 193.87,212.869C195.634,209.853 198.866,208 202.36,208L210,208C210,208 220.449,193.477 234,193C236.295,192.919 239.336,193.266 242.683,193.82ZM210.487,200.862C210.731,198.077 210.68,193.726 209,189C206.141,180.957 202.615,167.017 204,161C205.385,154.983 201.824,147.357 206,146C210.176,144.643 214.041,151.547 214,166C213.959,180.453 218.024,178.469 217,184C216.03,189.241 213.399,183.347 210.487,200.862ZM210.487,200.862C210.316,202.817 210,204 210,204C210.163,202.878 210.326,201.834 210.487,200.862ZM191.942,210C191.942,210 177.703,188.573 172,183C166.297,177.427 178.538,167.999 182,177C185.462,186.001 184.552,195.92 191.942,210ZM228.734,191.637C219.805,187.437 224.55,177.931 222,154C219.45,130.069 229.846,136.826 233,142C236.154,147.174 234.385,157.252 232,166C229.615,174.748 234.385,176.418 233,182C231.615,187.582 228.734,191.637 228.734,191.637ZM276,220C272.657,219.882 272.403,215.276 280,206C287.597,196.724 290.963,208.498 291,213C291.037,217.502 279.827,223.346 273,224C266.173,224.654 276,220 276,220Z" style="fill:rgb(99,45,19);"/>
    </g>
    <g transform="matrix(1.46628,0,0,1.46628,-117.584,-114.877)">
        <path d="M151.996,296C151.97,296.026 151.811,296.639 152,308C152.205,320.347 153.379,331.26 145,332C135.628,332.828 135,324 135,324L140,324C140.4,324.961 141.533,326.873 144,327C147.999,327.206 146.764,317.764 146,317C134.185,321.597 132.867,309.923 133,296L139,296C139,296 137.56,313.519 143,313.5C148.44,313.481 147,296 147,296L151.996,296ZM151.996,296C151.999,295.998 152,296 152,296L151.996,296ZM185.993,322.004C185.495,322.33 188.783,326.204 191,324C194.739,320.282 182.025,315.81 182.945,306C183.674,298.224 192.031,295.362 197,299C201.969,302.638 200,309 200,309L195,308C196.009,304.085 192.792,300.949 190,303C186.42,305.63 191.619,311.251 196,318C203.155,329.022 186.794,336.754 181,325L185.993,322.004ZM185.993,322.004C185.995,322.003 185.998,322.001 186,322L185.993,322.004ZM400.993,321.875C400.995,321.874 400.998,321.872 401,321.871L400.993,321.875ZM400.993,321.875C400.495,322.201 403.783,326.075 406,323.871C409.739,320.153 397.025,315.681 397.945,305.871C398.674,298.095 407.031,295.233 412,298.871C416.969,302.509 415,308.871 415,308.871L410,307.871C411.009,303.956 407.792,300.82 405,302.871C401.42,305.501 406.619,311.122 411,317.871C418.155,328.893 401.794,336.625 396,324.871L400.993,321.875ZM85,296L90,296L90,314C94.047,311.186 97.397,305.462 98,296L103,295.948C103.311,303.512 100.267,310.572 95,315C99.259,318.67 101.716,324.09 103,329L97,329C96.043,324.027 93.695,321.242 91,319L91,332L85,332L85,296ZM107,296L113,296C113,296 110.583,323.753 118,325C124.59,326.108 122.791,297.567 123,296L128,296C127.359,297.281 130.724,330.666 118,330.982C103.75,331.337 108.946,298.545 107,296ZM179,332.055L173,332.055L171,321L164,321L161,330.876L156,328L166,295L172,295L179,332.055ZM168,306L165,316L170,316L168,306ZM237.724,373.055L235.448,373.055L234.689,368.862L232.034,368.862L230.896,372.607L229,371.517L232.793,359L235.069,359L237.724,373.055ZM233.552,363.172L232.414,366.965L234.31,366.965L233.552,363.172ZM257.724,373.055L255.448,373.055L254.689,368.862L252.034,368.862L250.896,372.607L249,371.517L252.793,359L255.069,359L257.724,373.055ZM253.552,363.172L252.414,366.965L254.31,366.965L253.552,363.172ZM216,372L217,359L221,366.027L224,359L226,373.055L224,373.055L223,366.027L221,372L219,366.027L218,373.055L216,372ZM240.724,359L243.362,359L243.362,371L246,371L246,373.055L240.724,373.055L240.724,359ZM259.276,361L262,361L263,368L265,363L267,368L269,360L271,360L268,373.055L265,367C263.435,370.255 263.328,370.58 262,373.055L259.276,361ZM274,360L278,360L278,362L277,362L277,371L278,371L278,373.055L274,373.055L274,371L275,371L275,362L274,362L274,360ZM227.213,332.683L221.213,332.683L219.213,321.629L212.213,321.629L209.213,331.504L204.213,328.629L214.213,295.629L220.213,295.629L227.213,332.683ZM216.213,306.629L213.213,316.629L218.213,316.629L216.213,306.629ZM242,295.948C262.162,295.589 259.607,317.026 248,320L248,331.094L242,331.017L242,295.948ZM247,314.156C254.429,313.8 253.601,300.783 247,301L247,314.156ZM263,295.999C282.5,294.446 281.655,316.482 273,319C277.514,321.14 278,329 278,329L273,330C272.72,323.966 268,322 268,322L268,330L263,330L263,295.999ZM267,302L267,316C274.431,316.306 276.266,301.875 267,302ZM295,296.999C304.309,296.909 310.256,309.598 306,323C301.744,336.402 284.03,333.978 282.945,316C281.857,297.984 293.631,296.958 295,296.999ZM295.049,303.111C294.164,303.085 286.559,303.748 287.261,315.386C287.962,326.999 299.405,328.566 302.155,319.908C304.904,311.25 301.063,303.053 295.049,303.111ZM320.861,331C320.34,330.972 319.863,330.945 319.425,330.917C317.494,330.79 315.703,329.864 314.484,328.361C313.265,326.859 312.727,324.916 313,323L317.079,323C317.478,327.045 323.337,327.457 323.46,320.998L323.46,301L318.079,301L318.079,295.921L332.079,295.921L332.079,301L328.54,301C328.54,301 328.54,301 328.54,323.321C328.54,326.092 325.632,331 320.861,331ZM335.925,295.999L348,295.999L348,301L342,301L342,310L347,310L347,316L342,316L342,326L349,326L349,331.094L335.925,331.102L335.925,295.999ZM369,306C367.614,299.788 361.543,300.318 360,308C358.407,315.934 360.381,325.996 365,326C369.756,326.004 370,320 370,320L375,320C374.795,331.397 363.957,333.604 359,328C349.066,315.608 355.567,296.669 365,295.999C373.398,295.403 375,306 375,306L369,306ZM393.258,295.948L393.258,301.95L387,301.95L387,331.052L383,331.052L383,301.95L377.742,301.95L377.742,295.948L393.258,295.948Z" style="fill:white;"/>
    </g>
    <g transform="matrix(1.46628,0,0,0.533191,-117.302,203.305)">
        <rect x="80" y="341" width="341" height="11" style="fill:white;"/>
    </g>
</svg>
