<?xml version="1.0" standalone="no"?>
<!DOCTYPE svg PUBLIC "-//W3C//DTD SVG 20010904//EN"
 "http://www.w3.org/TR/2001/REC-SVG-20010904/DTD/svg10.dtd">
<svg version="1.0" xmlns="http://www.w3.org/2000/svg"
 width="700.000000pt" height="700.000000pt" viewBox="0 0 700.000000 700.000000"
 preserveAspectRatio="xMidYMid meet">
<metadata>
Created by potrace 1.14, written by Peter Selinger 2001-2017
</metadata>
<g transform="translate(0.000000,700.000000) scale(0.100000,-0.100000)"
fill="#000000" stroke="none">
<path d="M2973 5790 c-23 -9 -46 -46 -57 -93 -7 -30 -8 -190 -1 -252 7 -66 15
-249 19 -430 2 -93 9 -191 16 -217 12 -47 70 -118 97 -118 15 0 65 95 86 167
17 56 16 76 -9 163 -22 75 -20 114 16 275 35 156 43 282 21 356 -27 96 -126
174 -188 149z"/>
<path d="M4007 5789 c-48 -13 -98 -59 -123 -113 -45 -99 -38 -217 32 -501 10
-40 6 -123 -9 -166 -23 -68 -25 -100 -11 -156 16 -62 70 -173 84 -173 21 0 61
34 77 63 30 58 35 92 38 252 4 186 14 391 21 455 16 132 5 256 -25 306 -22 35
-44 44 -84 33z"/>
<path d="M2583 5609 c-11 -4 -24 -13 -28 -19 -4 -6 -8 -104 -10 -218 -4 -259
14 -374 101 -640 13 -40 27 -103 31 -140 6 -63 7 -65 15 -32 29 118 50 170 83
206 19 21 36 48 36 61 1 13 2 29 3 36 1 6 -11 49 -26 93 -18 54 -30 111 -33
165 -2 46 -7 127 -10 179 -11 206 -81 339 -162 309z"/>
<path d="M3405 5597 c-35 -54 -41 -170 -20 -387 5 -47 1 -92 -14 -165 -28
-136 -47 -302 -43 -383 1 -31 -1 -33 -27 -27 -59 13 -164 12 -221 -1 -118 -27
-236 -104 -355 -230 l-60 -63 -95 -2 c-142 -2 -203 -34 -250 -132 -20 -43 -22
-59 -18 -136 6 -103 23 -141 78 -176 49 -31 59 -63 51 -165 -11 -158 -6 -252
17 -320 54 -155 133 -263 229 -311 70 -35 108 -35 187 0 106 49 186 64 361 71
157 5 175 8 230 33 l61 28 59 -28 c56 -26 72 -28 230 -34 180 -7 226 -16 359
-68 84 -34 106 -37 157 -20 112 38 230 198 274 374 17 70 17 78 1 315 -4 62
11 98 54 125 57 36 73 74 78 181 4 76 1 97 -16 130 -50 99 -101 127 -242 132
l-105 4 -70 73 c-185 192 -337 252 -557 221 -37 -5 -37 -5 -36 32 2 86 -14
235 -38 352 -20 99 -24 138 -18 190 4 36 8 124 8 195 1 111 -2 136 -19 170
-24 49 -46 54 -88 22 l-33 -25 -27 24 c-35 30 -62 30 -82 1z m141 -857 c15
-36 39 -79 52 -97 l23 -32 -23 -11 c-13 -7 -37 -25 -54 -41 l-30 -29 -25 26
c-13 14 -36 32 -51 40 l-27 14 29 44 c16 24 39 69 51 100 12 31 23 55 24 54 1
-2 15 -32 31 -68z m64 -541 c14 -7 43 -18 65 -25 l40 -13 -40 0 c-60 -1 -102
-32 -131 -96 -13 -30 -26 -55 -28 -55 -2 0 -15 24 -29 54 -28 59 -71 96 -111
96 -14 0 -26 5 -26 10 0 6 7 10 15 10 26 0 91 37 121 69 l29 31 35 -34 c19
-19 46 -39 60 -47z m-367 -83 c-85 -64 -97 -80 -96 -129 0 -23 2 -94 3 -158 3
-135 -17 -198 -73 -236 -60 -41 -121 -27 -203 49 -42 38 -51 57 -73 144 -9 32
-23 51 -65 84 -30 24 -59 53 -64 64 -24 54 19 111 107 141 l51 17 87 -37 c96
-42 208 -60 197 -32 -3 8 -25 26 -50 38 -47 26 -53 34 -29 43 8 3 15 13 15 21
0 14 9 16 63 11 40 -4 82 -1 117 8 30 7 59 14 63 15 5 1 -17 -19 -50 -43z
m546 29 c32 -8 81 -12 122 -10 57 4 69 2 69 -11 0 -8 7 -17 15 -20 24 -9 18
-17 -29 -43 -25 -12 -47 -29 -50 -37 -12 -32 129 -6 230 42 53 25 54 25 108 8
49 -15 105 -53 107 -72 0 -4 2 -16 4 -26 4 -20 -20 -76 -33 -76 -4 0 -26 -17
-48 -38 -33 -30 -46 -52 -63 -108 -23 -77 -56 -118 -128 -161 -79 -46 -153
-17 -195 75 -19 42 -23 126 -14 287 4 74 -8 95 -85 153 -39 28 -69 52 -67 52
1 0 27 -7 57 -15z"/>
<path d="M4405 5609 c-35 -10 -66 -53 -89 -121 -21 -65 -25 -89 -31 -198 -16
-285 -12 -255 -54 -371 -24 -67 -16 -112 28 -156 27 -27 64 -121 76 -193 8
-45 15 -51 16 -14 1 52 9 87 49 224 81 274 87 318 85 571 -1 124 -5 231 -9
237 -13 21 -41 29 -71 21z"/>
<path d="M1912 5015 c-28 -24 -43 -47 -48 -70 -8 -44 -1 -62 41 -110 47 -53
225 -292 295 -395 76 -113 83 -121 64 -75 -47 111 -76 209 -104 341 -41 200
-50 233 -71 276 -39 78 -109 91 -177 33z"/>
<path d="M4978 5030 c-36 -28 -55 -81 -99 -285 -40 -186 -65 -272 -105 -362
-13 -29 -22 -53 -20 -53 1 0 29 39 61 88 83 122 242 336 303 406 41 47 52 66
52 94 0 46 -25 86 -70 111 -47 26 -90 27 -122 1z"/>
<path d="M1770 2550 c-11 -7 -27 -49 -45 -115 -7 -27 -47 -161 -89 -297 -42
-136 -76 -252 -76 -257 0 -8 84 -61 96 -61 2 0 18 45 35 100 l32 101 70 -3 71
-3 20 -110 21 -110 63 -3 c57 -3 63 -1 58 15 -3 10 -8 34 -11 53 -6 31 -22
117 -40 215 -3 17 -12 64 -20 105 -8 41 -17 91 -20 110 -3 19 -12 67 -20 107
-8 39 -18 89 -21 110 -3 21 -8 40 -10 42 -5 6 -105 7 -114 1z m50 -312 c25
-129 28 -119 -28 -117 l-49 2 14 51 c8 28 19 68 25 89 6 20 14 37 18 37 4 0
13 -28 20 -62z"/>
<path d="M413 2533 c-52 -4 -53 -5 -53 -36 0 -50 -27 -153 -55 -207 -26 -50
-81 -120 -95 -120 -5 0 -8 73 -9 163 0 89 0 170 0 180 -1 14 -10 17 -51 17
l-49 0 -3 -142 c-2 -79 -2 -245 0 -370 l3 -227 55 1 c30 1 58 6 61 11 4 6 6
64 5 129 0 65 3 118 7 118 18 0 79 -88 98 -140 l21 -55 61 0 c33 -1 61 0 61 1
0 1 -7 21 -15 45 -28 78 -66 148 -107 194 l-41 46 30 32 c72 76 119 184 130
299 3 37 4 67 2 66 -2 -1 -28 -3 -56 -5z"/>
<path d="M1085 2530 c-7 -11 5 -219 16 -270 27 -129 74 -181 163 -176 28 2 58
6 67 10 23 10 38 -37 33 -103 -6 -80 -20 -98 -74 -92 -8 1 -27 15 -42 31 -23
25 -35 29 -73 28 -54 -1 -58 -17 -23 -80 28 -49 74 -78 132 -83 91 -7 137 21
171 105 17 40 19 77 20 325 0 154 -3 287 -6 295 -5 11 -19 14 -52 12 l-44 -4
1 -76 c3 -138 -20 -243 -59 -268 -68 -44 -115 75 -109 275 l1 69 -59 4 c-33 2
-61 1 -63 -2z"/>
<path d="M2725 2453 c-14 -49 -30 -99 -36 -113 -5 -14 -11 -34 -14 -45 -4 -20
-10 -39 -84 -284 -23 -74 -41 -138 -41 -142 0 -4 22 -21 48 -37 l49 -30 16 52
c9 28 24 74 32 102 l16 51 70 0 69 -1 9 -35 c5 -20 15 -71 22 -113 l13 -78 62
0 62 0 -14 73 c-8 39 -17 86 -19 102 -3 17 -8 41 -10 55 -7 31 -4 19 -55 290
-23 124 -44 228 -47 233 -2 4 -31 7 -63 7 l-59 0 -26 -87z m89 -247 c9 -43 16
-82 16 -87 0 -5 -22 -9 -50 -9 l-49 0 15 48 c8 26 20 68 27 94 6 26 15 44 18
40 4 -4 14 -42 23 -86z"/>
<path d="M3323 2177 l2 -362 60 0 60 0 0 113 0 112 30 10 c65 23 128 104 146
188 31 150 -66 274 -226 289 -27 2 -55 6 -62 8 -8 3 -11 -87 -10 -358z m165
230 c38 -31 52 -123 29 -180 -17 -39 -36 -56 -67 -59 l-24 -3 -1 133 -1 133
26 -6 c13 -4 31 -12 38 -18z"/>
<path d="M3769 2533 c-15 -4 -17 -36 -15 -351 l1 -347 50 0 50 0 0 82 c0 70 2
80 15 73 41 -22 91 -105 85 -141 -2 -13 4 -15 39 -8 22 5 47 8 54 9 31 1 -11
135 -56 183 -25 27 -26 29 -9 39 107 60 124 270 30 373 -30 34 -76 62 -118 73
-50 13 -105 19 -126 15z m146 -150 c13 -10 28 -28 34 -41 17 -36 13 -109 -8
-150 -20 -39 -84 -83 -98 -68 -4 4 -8 71 -8 148 l0 140 28 -6 c15 -3 39 -14
52 -23z"/>
<path d="M4909 2532 c-24 -3 -26 -7 -26 -53 l0 -49 56 0 56 0 -1 -225 c-1
-193 -4 -228 -18 -250 -10 -14 -24 -29 -32 -32 -26 -10 -64 7 -74 32 -8 21
-16 25 -50 25 -38 0 -40 -2 -40 -30 0 -126 183 -182 272 -83 43 47 48 82 48
328 l0 235 35 0 35 0 0 50 c0 28 -3 50 -7 51 -23 3 -232 4 -254 1z"/>
<path d="M5273 2532 l-23 -3 0 -360 0 -359 134 0 133 0 -1 53 -1 52 -60 1
c-33 1 -65 2 -71 3 -6 1 -10 37 -10 99 l1 97 51 5 51 5 -1 60 -1 60 -40 1
c-22 1 -45 2 -50 3 -9 1 -13 130 -6 174 0 4 28 7 60 7 l59 0 -1 50 0 50 -36 1
c-20 0 -65 1 -101 2 -36 1 -75 1 -87 -1z"/>
<path d="M6114 2531 c-2 -2 -4 -31 -4 -63 l0 -58 53 0 52 0 0 -291 c0 -160 3
-295 6 -301 3 -5 21 -8 40 -6 41 4 37 -31 38 321 l1 277 63 0 64 0 -1 62 -1
62 -153 0 c-85 1 -156 -1 -158 -3z"/>
<path d="M555 2503 c2 -16 7 -111 10 -213 5 -201 20 -293 60 -373 33 -69 80
-101 146 -100 102 1 155 80 194 288 4 17 9 119 12 228 l6 197 -52 0 -51 0 -1
-137 c-2 -363 -39 -491 -129 -443 -25 13 -54 77 -65 140 -4 25 -9 54 -12 65
-2 11 -4 100 -4 198 l0 177 -59 0 c-59 0 -59 0 -55 -27z"/>
<path d="M5774 2505 c-49 -29 -83 -71 -113 -140 -30 -68 -36 -105 -35 -210 3
-173 91 -321 203 -337 109 -16 203 61 218 178 l5 44 -50 0 c-50 0 -51 -1 -61
-36 -27 -98 -124 -115 -168 -31 -59 113 -48 353 20 414 47 43 100 29 126 -34
11 -26 15 -28 71 -28 l61 0 -7 30 c-8 35 -36 91 -61 121 -48 57 -141 70 -209
29z"/>
<path d="M2244 2494 c-84 -29 -134 -99 -134 -188 1 -66 24 -116 91 -195 86
-101 91 -109 84 -131 -14 -45 -69 -45 -102 -1 -10 14 -16 13 -58 -9 -26 -14
-49 -28 -51 -32 -9 -15 49 -79 90 -100 50 -25 110 -27 158 -4 46 22 67 45 83
92 19 56 3 106 -69 215 -110 165 -123 202 -86 239 43 43 110 4 110 -65 0 -31
2 -33 45 -39 25 -4 49 -5 54 -1 15 9 7 96 -13 137 -33 68 -129 107 -202 82z"/>
<path d="M4319 2486 c-61 -30 -103 -78 -131 -146 -32 -80 -32 -270 0 -351 90
-227 348 -249 436 -37 52 124 50 302 -4 409 -68 131 -189 182 -301 125z m166
-125 c48 -27 86 -114 87 -197 3 -176 -96 -276 -217 -218 -123 58 -141 335 -27
410 54 36 100 37 157 5z"/>
<path d="M6632 2485 c-76 -35 -112 -101 -107 -192 4 -66 29 -112 109 -203 36
-41 66 -84 66 -95 0 -48 -55 -60 -94 -21 l-24 23 -46 -25 c-25 -14 -46 -31
-46 -38 0 -21 57 -80 94 -98 101 -48 227 14 240 118 7 54 -12 101 -78 194 -31
45 -68 106 -82 136 -24 52 -24 57 -9 86 32 63 114 29 115 -47 0 -29 4 -33 41
-43 56 -15 69 -8 69 37 0 145 -121 227 -248 168z"/>
<path d="M0 1568 l0 -43 3497 0 3498 1 3 42 3 42 -3500 0 -3501 0 0 -42z"/>
<path d="M3100 1128 c-18 -62 -37 -120 -41 -128 -5 -10 -1 -19 14 -27 20 -10
23 -8 32 25 9 29 15 36 38 37 15 1 27 -1 28 -4 0 -3 3 -15 5 -26 2 -11 5 -28
6 -37 3 -21 48 -25 48 -5 0 7 -11 71 -25 141 -14 70 -25 130 -25 132 0 2 -11
4 -23 4 -22 0 -27 -11 -57 -112z m60 -34 c0 -12 -6 -21 -15 -21 -16 0 -18 10
-8 45 4 18 8 20 14 10 5 -7 9 -22 9 -34z"/>
<path d="M3299 1233 c-4 -23 -5 -260 -1 -270 3 -8 23 -13 56 -13 45 0 52 3 52
20 0 20 -7 24 -38 21 -16 -2 -18 10 -18 123 l0 126 -25 0 c-14 0 -26 -3 -26
-7z"/>
<path d="M3506 1115 c-31 -101 -36 -128 -26 -140 16 -19 30 -19 30 0 0 30 23
64 42 62 26 -4 36 -17 40 -52 2 -22 9 -31 26 -33 27 -4 28 8 8 104 -8 38 -20
95 -26 127 -10 49 -14 57 -34 57 -21 0 -27 -13 -60 -125z m62 -13 c1 -20 -3
-29 -13 -29 -16 0 -18 10 -9 44 8 30 19 22 22 -15z"/>
<path d="M2940 1220 c0 -8 -12 -40 -26 -70 l-25 -54 -35 62 c-37 66 -50 76
-51 40 0 -13 -3 -69 -7 -125 -6 -95 -6 -103 13 -112 18 -10 20 -7 26 36 11 83
20 93 35 40 7 -26 16 -50 20 -52 5 -3 14 17 21 45 14 56 24 64 27 23 1 -16 4
-37 6 -48 3 -11 5 -28 5 -37 1 -11 9 -18 22 -18 20 0 21 3 14 57 -4 32 -9 66
-11 78 -2 11 -6 42 -10 70 -5 49 -23 97 -24 65z"/>
<path d="M3877 1213 c-2 -5 -12 -41 -23 -81 l-18 -73 -22 48 -21 48 -12 -30
c-28 -73 -28 -73 -37 -10 -4 33 -8 65 -8 70 -1 12 -56 20 -56 8 0 -4 7 -39 16
-78 8 -38 18 -83 21 -100 11 -62 20 -62 48 0 l28 59 28 -57 c16 -31 31 -57 33
-57 2 0 14 44 26 98 12 53 25 109 30 124 5 14 6 29 3 32 -9 8 -31 7 -36 -1z"/>
<path d="M3980 1200 c0 -11 4 -20 9 -20 12 0 14 -177 1 -185 -5 -3 -10 -15
-10 -26 0 -16 7 -19 40 -19 33 0 40 3 40 20 0 11 -4 20 -10 20 -6 0 -10 38
-10 95 0 57 4 95 10 95 6 0 10 9 10 20 0 17 -7 20 -40 20 -33 0 -40 -3 -40
-20z"/>
</g>
</svg>
